# xmcd
#
# Track frame offsets:
# 150
# 15696
# 31603
# 51215
# 66574
# 83176
# 101643
# 118210
# 133381
# 150459
# 182056
#
# Disc length: 2713 seconds
#
#
# Revision: 0
# Processed by: cddbd v1.5PL3 Copyright (c) Steve Scherf et al.
# Submitted via: FreeRIP 2.60 
#
DISCID=950a970b
DTITLE=Fábio Mattos - Sentado Na Estação
DYEAR=2002
DGENRE=Blues
TTITLE0=Blues da Lama
TTITLE1=Na Estação
TTITLE2=Blues e Cidade
TTITLE3=Lisa
TTITLE4=Resto de Gente
TTITLE5=Lolita
TTITLE6=Pintangueira
TTITLE7=Deu
TTITLE8=Não Vou Beber Mais Assim
TTITLE9=Nina
TTITLE10=faixa Interativa para CD-Rom
EXTD=
EXTT0=
EXTT1=
EXTT2=
EXTT3=
EXTT4=
EXTT5=
EXTT6=
EXTT7=
EXTT8=
EXTT9=
EXTT10=
PLAYORDER=
